<?xml version="1.0" encoding="utf-8"?>
<!-- Generator: Adobe Illustrator 24.2.1, SVG Export Plug-In . SVG Version: 6.00 Build 0)  -->
<svg version="1.1" id="Calque_1" xmlns="http://www.w3.org/2000/svg" xmlns:xlink="http://www.w3.org/1999/xlink" x="0px" y="0px"
	 viewBox="0 0 329.4 104.7" style="enable-background:new 0 0 329.4 104.7;" xml:space="preserve">
<style type="text/css">
	.st0{display:none;}
	.st1{display:inline;fill:#002364;}
	.st2{fill:#002364;}
	.st3{fill:#D70064;}
	.st4{fill:#00B4AA;}
</style>
<g id="Calque_1_1_" class="st0">
	<path class="st1" d="M8.3,36.8h12.3c8.4,0,15.7,7.4,15.7,16s-7.3,16-15.7,16H8.3V36.8z M18.6,61.8c3.1,0,5.1-0.8,6.8-2.7
		c3.1-3.6,3.1-8.9,0-12.5c-1.7-1.9-3.7-2.7-6.8-2.7h-1.9v17.9L18.6,61.8z"/>
	<path class="st1" d="M49.1,43.9v5.3h9.4v7.1h-9.4v5.5H59v7.1H40.7v-32h18.2v7L49.1,43.9z"/>
	<path class="st1" d="M86.7,47.7c-1.7-2.2-4.4-3.5-7.2-3.5c-5,0-8.6,3.7-8.6,8.8c-0.1,2.5,0.9,4.9,2.8,6.5c1.6,1.4,3.7,2.1,5.8,2.1
		c2.8,0,5.4-1.2,7.2-3.4v9.9c-3.9,1.3-5.1,1.6-7.4,1.6c-4.9-0.1-9.5-2.1-12.8-5.6c-2.8-3-4.3-6.9-4.2-11c-0.1-9.3,7.4-16.9,16.7-17
		c0.1,0,0.2,0,0.3,0c2.6,0,5.2,0.6,7.5,1.6L86.7,47.7z"/>
	<path class="st1" d="M120.5,41.2c6.5,6.9,6.1,17.8-0.9,24.2c-0.2,0.2-0.4,0.3-0.6,0.5c-3.3,2.7-7.6,4.1-11.9,4
		c-10.1,0-17.6-7.4-17.6-17.4c0-4.9,2.2-9.6,6-12.7c3.3-2.7,7.5-4.1,11.7-4C112.3,35.7,117.1,37.6,120.5,41.2z M98.4,52.8
		c-0.1,5,3.9,9.1,8.9,9.1c5,0.1,9.1-3.9,9.1-8.9c0.1-5-3.9-9.1-8.9-9.1c0,0-0.1,0-0.1,0C102.5,43.9,98.4,47.9,98.4,52.8z"/>
	<path class="st1" d="M137.5,61.8h10v7.1h-18.3v-32h8.3V61.8z"/>
	<path class="st1" d="M158.9,61.8h10v7.1h-18.3v-32h8.3V61.8z"/>
</g>
<g id="byCNP">
	<path class="st2" d="M213.5,49.9c0.5-0.6,1.2-0.9,2-0.9c1.8,0.2,3.2,1.9,2.9,3.7c-0.2,1.5-1.4,2.7-2.9,2.9c-0.8,0-1.5-0.3-2-0.9
		v0.7h-1.5V44.5h1.5V49.9z M213.5,52.3c-0.1,1,0.6,1.9,1.5,2c1,0.1,1.9-0.6,2-1.5c0-0.2,0-0.3,0-0.5c0.1-1-0.6-1.9-1.6-2.1
		c0,0-0.1,0-0.1,0c-1,0-1.8,0.8-1.8,1.8C213.4,52.1,213.4,52.2,213.5,52.3L213.5,52.3z"/>
	<path class="st2" d="M218.9,49.1h1.7l1.9,3.6l1.8-3.6h1.7l-5,9.8h-1.7l2.5-4.6L218.9,49.1z"/>
	<path class="st2" d="M238.4,47.8c-0.7-0.7-1.7-1.1-2.7-1.1c-2,0-3.7,1.7-3.7,3.8c0,0,0,0,0,0.1c0,2,1.6,3.7,3.6,3.7
		c0,0,0.1,0,0.1,0c1,0,2-0.4,2.7-1.1v1.8c-0.8,0.5-1.8,0.8-2.7,0.8c-2.8,0-5.2-2.3-5.2-5.1c0,0,0,0,0,0c0-2.9,2.4-5.3,5.2-5.3
		c0,0,0,0,0,0c0.9,0,1.8,0.2,2.6,0.7V47.8z"/>
	<path class="st2" d="M240.3,44.8l7.3,7.6v-7h1.5V56l-7.3-7.6v7h-1.5V44.8z"/>
	<path class="st2" d="M253,55.4h-1.5v-10h1.7c1-0.1,2,0.1,2.8,0.6c0.7,0.6,1.1,1.4,1.1,2.3c0,0.8-0.3,1.6-0.9,2.1
		c-0.7,0.6-1.6,0.9-2.5,0.9H253L253,55.4z M253.5,50c0.6,0.1,1.1-0.1,1.6-0.4c0.3-0.3,0.5-0.7,0.5-1.2c0-0.5-0.2-0.9-0.6-1.2
		c-0.5-0.3-1-0.4-1.6-0.4H253V50L253.5,50z"/>
	<path class="st2" d="M264,53l-1.1,2.4h-1.6l5-10.6l4.8,10.6h-1.7l-1-2.4L264,53z M266.1,48.1l-1.5,3.4h3L266.1,48.1z"/>
	<path class="st2" d="M274.5,50.8c-0.2-0.4-0.4-0.6-0.7-0.6c-0.3,0-0.5,0.2-0.5,0.4c0,0,0,0,0,0c0,0.3,0.2,0.4,0.8,0.7
		c0.4,0.2,0.8,0.4,1.2,0.6c0.5,0.3,0.8,0.8,0.8,1.4c0,1.2-1,2.2-2.2,2.1c0,0,0,0,0,0c-1,0-1.9-0.6-2.3-1.6l1.3-0.6
		c0.3,0.6,0.6,0.8,1,0.8c0.4,0,0.7-0.2,0.7-0.6c0,0,0,0,0-0.1c0-0.4-0.1-0.5-1.5-1.1c-0.9-0.4-1.2-0.9-1.2-1.6
		c0.1-1.1,1.1-1.9,2.2-1.7c0.7,0.1,1.2,0.5,1.5,1.1L274.5,50.8z"/>
	<path class="st2" d="M280,50.8c-0.2-0.4-0.4-0.6-0.7-0.6c-0.3,0-0.5,0.2-0.5,0.4c0,0,0,0,0,0c0,0.3,0.2,0.4,0.8,0.7
		c0.4,0.2,0.8,0.4,1.2,0.6c0.5,0.3,0.8,0.8,0.8,1.4c0,1.2-1,2.2-2.2,2.1c0,0,0,0,0,0c-1,0-1.9-0.6-2.3-1.6l1.3-0.6
		c0.3,0.6,0.6,0.8,1,0.8c0.4,0,0.7-0.2,0.7-0.6c0,0,0,0,0-0.1c0-0.4-0.1-0.5-1.5-1.1c-0.9-0.4-1.2-0.9-1.2-1.6
		c0.1-1.1,1.1-1.9,2.2-1.7c0.7,0.1,1.2,0.5,1.5,1.1L280,50.8z"/>
	<path class="st2" d="M284.4,52.7c0,1.1,0.4,1.6,1.3,1.6c0.9,0,1.2-0.5,1.2-1.6v-3.6h1.4v3.7c0.1,0.7-0.2,1.5-0.7,2.1
		c-1.1,1.1-2.9,1.1-4.1,0c-0.5-0.6-0.7-1.3-0.7-2.1v-3.7h1.5V52.7z"/>
	<path class="st2" d="M291.6,49.1v0.6c0.3-0.5,0.9-0.7,1.5-0.8c0.4,0,0.9,0.1,1.2,0.4l-0.7,1.3c-0.2-0.2-0.5-0.3-0.8-0.3
		c-0.8,0-1.2,0.6-1.2,1.8v3.3h-1.4v-6.3H291.6z"/>
	<path class="st2" d="M301.1,49.1v6.3h-1.4v-0.7c-0.5,0.6-1.2,0.9-1.9,0.9c-1.8-0.2-3.2-1.8-3-3.7c0.2-1.6,1.4-2.9,3-3
		c0.8,0,1.5,0.3,2,0.9v-0.7H301.1z M296.2,52.3c0.1,1,1,1.7,2,1.6c1-0.1,1.7-1,1.6-2c-0.1-0.9-0.9-1.6-1.8-1.6
		C296.9,50.3,296.1,51.2,296.2,52.3C296.2,52.2,296.2,52.2,296.2,52.3z"/>
	<path class="st2" d="M304.4,49.1v0.6c0.4-0.5,1.1-0.8,1.7-0.8c0.7,0,1.4,0.3,1.9,0.9c0.3,0.5,0.4,1.1,0.4,1.8v3.9h-1.5v-3.5
		c0.1-0.4,0-0.8-0.2-1.2c-0.2-0.3-0.6-0.5-1-0.4c-1,0-1.4,0.6-1.4,2.1v3.1h-1.5v-6.3H304.4z"/>
	<path class="st2" d="M315.1,51.3c-0.7-0.8-1.1-1.1-1.8-1.1c-1.1,0-2,0.9-2,2s0.9,2,2,2c0.7,0,1.1-0.3,1.9-1.1v1.9
		c-0.5,0.3-1.2,0.5-1.8,0.5c-1.8,0.1-3.4-1.4-3.4-3.2c0,0,0-0.1,0-0.1c0-1.9,1.5-3.4,3.4-3.4c0,0,0.1,0,0.1,0c0.6,0,1.2,0.1,1.8,0.4
		L315.1,51.3z"/>
	<path class="st2" d="M317.9,52.6c0,0.9,0.7,1.7,1.6,1.7c0,0,0,0,0.1,0c0.7,0,1.1-0.3,1.7-1.2l1.2,0.7c-0.2,0.4-0.5,0.8-0.9,1.1
		c-0.6,0.5-1.4,0.8-2.1,0.8c-1.8-0.2-3.2-1.8-3.1-3.6c0.1-1.6,1.4-2.9,3-3.1c1,0,1.9,0.4,2.5,1.2c0.4,0.6,0.5,1.4,0.5,2.1v0.3H317.9
		z M320.9,51.4c-0.1-0.7-0.8-1.2-1.5-1.2c-0.7,0-1.3,0.5-1.5,1.2H320.9z"/>
	<path class="st2" d="M326.5,50.8c-0.2-0.4-0.4-0.6-0.7-0.6c-0.3,0-0.5,0.2-0.5,0.4c0,0,0,0,0,0c0,0.3,0.2,0.4,0.8,0.7
		c0.4,0.2,0.8,0.4,1.2,0.6c0.5,0.3,0.8,0.8,0.8,1.4c0,1.2-1,2.2-2.2,2.1c0,0,0,0,0,0c-1,0-1.9-0.6-2.3-1.6l1.2-0.6
		c0.4,0.6,0.6,0.8,1,0.8c0.4,0,0.7-0.2,0.7-0.6c0,0,0,0,0-0.1c0-0.4-0.1-0.5-1.4-1.1c-0.9-0.4-1.2-0.9-1.2-1.6c0-1.1,0.9-1.9,2-1.9
		c0.8,0,1.5,0.5,1.7,1.2L326.5,50.8z"/>
</g>
<g class="st0">
	<path class="st1" d="M21.7,59.9c0,2.9-1,5.2-3.1,6.9c-2.1,1.7-5,2.5-8.7,2.5c-3.4,0-6.5-0.6-9.1-1.9V61c2.2,1,4,1.6,5.5,2
		c1.5,0.4,2.9,0.6,4.1,0.6c1.5,0,2.6-0.3,3.4-0.9c0.8-0.6,1.2-1.4,1.2-2.5c0-0.6-0.2-1.2-0.5-1.7c-0.4-0.5-0.9-1-1.5-1.4
		c-0.7-0.5-2.1-1.2-4.2-2.2c-2-0.9-3.4-1.8-4.4-2.7s-1.8-1.8-2.4-3s-0.9-2.4-0.9-4c0-2.8,1-5.1,2.9-6.7s4.6-2.4,8-2.4
		c1.7,0,3.3,0.2,4.8,0.6c1.5,0.4,3.1,1,4.8,1.7l-2.2,5.3c-1.7-0.7-3.1-1.2-4.3-1.5c-1.1-0.3-2.2-0.4-3.3-0.4c-1.3,0-2.3,0.3-3,0.9
		s-1,1.4-1,2.4c0,0.6,0.1,1.1,0.4,1.6C8.5,47.2,9,47.6,9.6,48c0.6,0.4,2,1.2,4.3,2.3c3,1.4,5.1,2.9,6.2,4.3
		C21.2,56,21.7,57.8,21.7,59.9z"/>
	<path class="st1" d="M46.1,68.8H27.6V36.7h18.5v5.6H34.4v7.1h10.9v5.6H34.4v8.3h11.7V68.8z M32.8,34.1v-0.6
		c2.5-2.9,4.2-5.1,5.2-6.6h7.5v0.5c-0.8,0.8-2.1,1.9-3.9,3.4c-1.8,1.5-3.3,2.6-4.3,3.4H32.8z"/>
	<path class="st1" d="M71.7,59.9c0,2.9-1,5.2-3.1,6.9c-2.1,1.7-5,2.5-8.7,2.5c-3.4,0-6.5-0.6-9.1-1.9V61c2.2,1,4,1.6,5.5,2
		c1.5,0.4,2.9,0.6,4.1,0.6c1.5,0,2.6-0.3,3.4-0.9c0.8-0.6,1.2-1.4,1.2-2.5c0-0.6-0.2-1.2-0.5-1.7c-0.4-0.5-0.9-1-1.5-1.4
		c-0.7-0.5-2.1-1.2-4.2-2.2c-2-0.9-3.4-1.8-4.4-2.7s-1.8-1.8-2.4-3s-0.9-2.4-0.9-4c0-2.8,1-5.1,2.9-6.7s4.6-2.4,8-2.4
		c1.7,0,3.3,0.2,4.8,0.6c1.5,0.4,3.1,1,4.8,1.7l-2.2,5.3c-1.7-0.7-3.1-1.2-4.3-1.5c-1.1-0.3-2.2-0.4-3.3-0.4c-1.3,0-2.3,0.3-3,0.9
		s-1,1.4-1,2.4c0,0.6,0.1,1.1,0.4,1.6c0.3,0.4,0.7,0.9,1.3,1.3c0.6,0.4,2,1.2,4.3,2.3c3,1.4,5.1,2.9,6.2,4.3
		C71.2,56,71.7,57.8,71.7,59.9z"/>
	<path class="st1" d="M97.2,68.8l-2.3-7.6H83.2l-2.3,7.6h-7.3l11.3-32.3h8.3l11.4,32.3H97.2z M93.3,55.5c-2.2-6.9-3.4-10.8-3.6-11.8
		c-0.3-0.9-0.5-1.6-0.6-2.2c-0.5,1.9-1.9,6.5-4.2,13.9H93.3z"/>
	<path class="st1" d="M122.2,68.8l-7.7-25.2h-0.2c0.3,5.1,0.4,8.5,0.4,10.3v14.9h-6.1V36.7h9.3l7.6,24.6h0.1l8.1-24.6h9.3v32.1h-6.4
		V53.6c0-0.7,0-1.5,0-2.5c0-0.9,0.1-3.4,0.3-7.5h-0.2l-8.3,25.2H122.2z"/>
	<path class="st1" d="M169.5,68.8H151V36.7h18.5v5.6h-11.7v7.1h10.9v5.6h-10.9v8.3h11.7V68.8z"/>
</g>
<path class="st3" d="M197.1,23.4h-13.2c16,15.9,16.2,41.8,0.3,57.8c-15,15.2-39.2,16.2-55.5,2.4l-6.6,7.8
	c21.5,18.2,53.8,15.5,72-6.1C208.9,67.8,210.2,42.4,197.1,23.4"/>
<path class="st4" d="M155.1,1.3c-16.8,0-32.5,8.3-42,22.1h13.2c15.9-15.8,41.6-15.8,57.6,0h13.2C187.6,9.6,171.9,1.3,155.1,1.3"/>
<g>
	<path class="st2" d="M21.8,45.3c-0.5-0.6-1.7-1.3-3.4-2c-1.7-0.8-3.5-1.1-5.2-1.1c-1.7,0-2.9,0.3-3.8,0.9s-1.3,1.5-1.3,2.7
		c0,0.3,0,0.6,0.1,0.9c0.1,0.3,0.2,0.5,0.4,0.8S9,47.8,9.2,48c0.2,0.2,0.5,0.4,0.8,0.5c0.4,0.2,0.7,0.3,1,0.5
		c0.3,0.1,0.7,0.3,1.3,0.4c0.6,0.2,1,0.3,1.4,0.4c0.4,0.1,1,0.3,1.7,0.5c1.4,0.4,2.5,0.7,3.5,1s1.9,0.8,2.8,1.3
		c0.9,0.5,1.6,1.1,2.2,1.7c0.5,0.6,1,1.4,1.3,2.3c0.3,0.9,0.5,1.9,0.5,3.1c0,1.7-0.3,3.1-1,4.4c-0.6,1.3-1.5,2.2-2.6,3
		c-1.1,0.7-2.4,1.3-3.7,1.6s-2.9,0.5-4.5,0.5c-2.4,0-4.8-0.4-7.1-1.1c-2.4-0.7-4.4-1.7-6.3-3l2.7-5.4c0.8,0.8,2.2,1.6,4.3,2.5
		c2.1,0.9,4.3,1.4,6.4,1.4c1.7,0,3-0.3,3.8-0.8c0.9-0.6,1.3-1.4,1.3-2.4c0-0.7-0.2-1.2-0.5-1.7c-0.3-0.5-0.9-0.9-1.7-1.3
		s-1.6-0.7-2.2-0.9c-0.6-0.2-1.7-0.5-3.2-0.9c-0.1,0-0.2-0.1-0.2-0.1s-0.1,0-0.2-0.1s-0.2-0.1-0.2-0.1c-1.6-0.5-2.9-0.9-4-1.4
		c-1.1-0.5-2-1.1-2.8-1.7s-1.4-1.5-1.7-2.4c-0.4-0.9-0.5-2-0.5-3.2c0-2.1,0.5-3.9,1.6-5.5s2.5-2.7,4.2-3.4c1.7-0.7,3.7-1.1,5.9-1.1
		c4,0,7.7,1.2,11.2,3.5L21.8,45.3z"/>
	<path class="st2" d="M52.6,63.4v5.4H30.4V36.9h21.8v5.4H36.6V50H50v5H36.6v8.3H52.6z M43.7,34.2L39.8,33l2.4-5.4h5.6L43.7,34.2z"/>
	<path class="st2" d="M76.4,45.3c-0.5-0.6-1.7-1.3-3.4-2c-1.7-0.8-3.5-1.1-5.2-1.1c-1.7,0-2.9,0.3-3.8,0.9c-0.9,0.6-1.3,1.5-1.3,2.7
		c0,0.3,0,0.6,0.1,0.9c0.1,0.3,0.2,0.5,0.4,0.8s0.4,0.4,0.5,0.6c0.2,0.2,0.5,0.4,0.8,0.5c0.4,0.2,0.7,0.3,1,0.5
		c0.3,0.1,0.7,0.3,1.3,0.4c0.6,0.2,1,0.3,1.4,0.4c0.4,0.1,1,0.3,1.7,0.5c1.4,0.4,2.5,0.7,3.5,1s1.9,0.8,2.8,1.3
		c0.9,0.5,1.6,1.1,2.2,1.7c0.5,0.6,1,1.4,1.3,2.3c0.3,0.9,0.5,1.9,0.5,3.1c0,1.7-0.3,3.1-1,4.4c-0.6,1.3-1.5,2.2-2.6,3
		c-1.1,0.7-2.4,1.3-3.7,1.6s-2.9,0.5-4.5,0.5c-2.4,0-4.8-0.4-7.1-1.1c-2.4-0.7-4.4-1.7-6.3-3l2.7-5.4c0.8,0.8,2.2,1.6,4.3,2.5
		c2.1,0.9,4.3,1.4,6.4,1.4c1.7,0,3-0.3,3.8-0.8c0.9-0.6,1.3-1.4,1.3-2.4c0-0.7-0.2-1.2-0.5-1.7c-0.3-0.5-0.9-0.9-1.7-1.3
		s-1.6-0.7-2.2-0.9c-0.6-0.2-1.7-0.5-3.2-0.9c-0.1,0-0.2-0.1-0.2-0.1s-0.1,0-0.2-0.1s-0.2-0.1-0.2-0.1c-1.6-0.5-2.9-0.9-4-1.4
		c-1.1-0.5-2-1.1-2.8-1.7s-1.4-1.5-1.7-2.4c-0.4-0.9-0.5-2-0.5-3.2c0-2.1,0.5-3.9,1.6-5.5s2.5-2.7,4.2-3.4c1.7-0.7,3.7-1.1,5.9-1.1
		c4,0,7.7,1.2,11.2,3.5L76.4,45.3z"/>
	<path class="st2" d="M92.9,36.9h6.3L111,68.9h-6.4l-3-8H90.5l-2.9,8h-6.4L92.9,36.9z M100.5,56.5l-4.4-13.2l-4.6,13.2H100.5z"/>
	<path class="st2" d="M140.5,68.9v-21l-8.2,15.6h-3.5l-8.2-15.6v21h-6.2V36.9h6.7l9.4,18.2l9.5-18.2h6.6v31.9H140.5z"/>
	<path class="st2" d="M175.6,63.4v5.4h-22.2V36.9h21.8v5.4h-15.6V50h13.5v5h-13.5v8.3H175.6z"/>
</g>
</svg>
